<svg fill="none" height="32" viewBox="0 0 32 32" width="32" xmlns="http://www.w3.org/2000/svg"><g fill="#fff"><path clip-rule="evenodd" d="m24.9099 13.0998c-.3461.0989-.7173.0565-1.0322-.1178-.3149-.1744-.5479-.4664-.6478-.8122l-.08-.29c-.0896-.3407-.0425-.7028.1312-1.0092.1738-.3064.4604-.5328.7988-.6308l.66-.19.83 2.9z" fill-rule="evenodd"/><path d="m7.39 24.47c-.8667.0019-1.71451-.2533-2.43611-.7333-.72161-.4801-1.28456-1.1635-1.6176-1.9637-.33305-.8001-.42122-1.6811-.25334-2.5314.16787-.8503.58423-1.6317 1.19639-2.2452.61215-.6136 1.39257-1.0317 2.24248-1.2015.84991-.1699 1.73109-.0837 2.53202.2475.80092.3312 1.48556.8926 1.96726 1.6131.4818.7205.7389 1.5677.7389 2.4345 0 1.1599-.4601 2.2724-1.2793 3.0935-.81928.8212-1.93078 1.2838-3.0907 1.2865zm0-7.26c-.57003-.002-1.12783.1652-1.60276.4804-.47492.3153-.84562.7644-1.06513 1.2905-.21951.526-.27798 1.1054-.16798 1.6648.10999.5593.38349 1.0734.78587 1.4772.40237.4037.91552.679 1.47445.791.55894.1119 1.13852.0555 1.66536-.1622.52683-.2177.97722-.5868 1.29412-1.0607.31687-.4738.48607-1.031.48607-1.601-.0079-.7569-.31341-1.4803-.85051-2.0136-.53709-.5334-1.26257-.8339-2.01949-.8364z"/><path d="m24.64 24.4797c-.8667.002-1.7145-.2532-2.4361-.7333s-1.2846-1.1634-1.6176-1.9636c-.3331-.8002-.4212-1.6811-.2534-2.5314.1679-.8503.5843-1.6317 1.1964-2.2453.6122-.6135 1.3926-1.0317 2.2425-1.2015s1.7311-.0836 2.532.2476c.801.3312 1.4856.8926 1.9673 1.6131.4818.7205.7389 1.5677.7389 2.4344 0 1.1599-.4601 2.2725-1.2793 3.0936-.8193.8211-1.9308 1.2838-3.0907 1.2864zm0-7.26c-.57-.002-1.1278.1653-1.6028.4805-.4749.3153-.8456.7644-1.0651 1.2904-.2195.5261-.278 1.1055-.168 1.6648s.3835 1.0734.7859 1.4772.9155.6791 1.4745.791c.5589.112 1.1385.0555 1.6653-.1622.5268-.2176.9772-.5868 1.2941-1.0606s.4861-1.031.4861-1.6011c-.0053-.7586-.3096-1.4845-.847-2.02s-1.2644-.8374-2.023-.84z"/><path d="m14.2496 21.6097h-2.57c-.1989 0-.3897-.0791-.5303-.2197-.1407-.1407-.2197-.3314-.2197-.5303 0-.199.079-.3897.2197-.5304.1406-.1406.3314-.2196.5303-.2196h2.57c2.54 0 2.54 0 3.37-2.1.3183-.9086.8355-1.7347 1.5136-2.418.6782-.6834 1.5003-1.2068 2.4064-1.532l-.56-1c-1.65.1251-3.2699.5099-4.8 1.14-.67.24-1.3.46-1.9.61-.7092.0762-1.4216-.1126-2-.53-1.5812-.896-3.385-1.3226-5.20001-1.23-.19757.0029-.38871-.0701-.5339-.2042-.14518-.134-.2333-.3187-.2461-.5158-.00677-.0994.00631-.1991.03847-.2933s.08276-.1811.14885-.2556c.06609-.0744.14634-.135.23608-.1781s.18716-.068.2866-.073c2.06865-.0967 4.12301.3883 5.93001 1.4.3125.1827.6491.3207 1 .41.52-.14 1.12-.35 1.75-.58 1.8068-.7393 3.7293-1.1556 5.68-1.23h.51l1.84 3.35-.84.29c-.8758.1959-1.6887.6078-2.3646 1.1981s-1.1934 1.3404-1.5054 2.1819c-1.12 2.89-1.39 3.06-4.76 3.06z"/><path d="m23.6496 17.0601c-.1352.0014-.2681-.0341-.3845-.1029-.1163-.0687-.2116-.168-.2755-.2871l-3.5-6.37c-.1319-.2428-.327-.44542-.5647-.58627-.2376-.14085-.509-.21471-.7853-.21374h-.83c-.1989 0-.3897-.07902-.5304-.21967-.1406-.14066-.2196-.33142-.2196-.53033 0-.19892.079-.38968.2196-.53033.1407-.14066.3315-.21967.5304-.21967h.83c.544-.00412 1.079.1398 1.5476.41636.4685.27655.853.67533 1.1124 1.15364l3.5 6.38001c.0905.1718.1109.372.0568.5585s-.1784.3448-.3468.4415c-.1096.0648-.233.1025-.36.11z"/></g></svg>