<svg fill="none" height="32" viewBox="0 0 32 32" width="32" xmlns="http://www.w3.org/2000/svg"><g fill="#36354c"><path d="m21.0323 18.873h-10.67v1.5h10.67z"/><path d="m27.8625 20.4027h-1.7v-1.5h1.7c.0404.0006.0796-.0131.1108-.0388.0311-.0256.0521-.0615.0592-.1012l.43-2.36c.0035-.0407-.0039-.0817-.0215-.1186-.0175-.0369-.0446-.0684-.0785-.0914-1.92-1.14-6.38-1.82-6.43-1.83-.1362-.0229-.2639-.0816-.37-.17-1.4547-1.2996-3.0245-2.4644-4.69-3.48-2.3241-.3117-4.6805-.2949-6.99996.05-.95001.5234-1.7809 1.2385-2.44 2.1-.27519.3644-.61397.6761-1 .92-.42029.158-.86183.2524-1.31.28-.33 0-.73.09-1.24.18s-.44.08-.4 1.81v1.24c-.03628.5319.01782 1.0661.16001 1.58.05935.0124.12063.0124.17999 0h1.41v1.5h-1.4c-.34791.0187-.69243-.0766-.98122-.2715-.28878-.195-.50605-.4788-.61878-.8085-.1901-.6486-.26457-1.3256-.22-2 0-.45 0-.85 0-1.2 0-1.69-.07-3 1.64-3.32.54-.1 1-.15 1.32-.2.28765-.0214.57241-.0716.85-.15l.5-.56c.81983-1.0795 1.88622-1.94705 3.11-2.53002 1.12996-.36 6.52996-.52 7.99996 0 1.09.38 4.09 2.85002 5 3.62002 1 .16 4.82.84 6.75 2 .298.1787.5349.4434.6795.7594.1446.3159.1901.6683.1305 1.0106l-.43 2.36c-.0803.3861-.2955.731-.607.9728-.3115.2419-.699.365-1.093.3472z"/><path d="m22.0523 14.3432h-.11c-1.93-.27-10.71-.2-10.79-.2-.1989 0-.3896-.0791-.5303-.2197-.1406-.1407-.2197-.3314-.2197-.5303 0-.1972.0777-.3865.2162-.5269.1385-.1403.3267-.2205.5238-.2231.37 0 9-.07 11 .22.0976.0122.1917.0438.2769.0929.0852.049.1598.1146.2194.1928.0595.0782.1029.1675.1276.2627.0247.0951.0302.1943.0161.2916-.026.1759-.1137.3368-.2474.454-.1337.1173-.3048.1832-.4826.186z"/><path d="m7.78215 22.6425c-.87972 0-1.7237-.3481-2.34763-.9683-.62392-.6201-.97709-1.462-.98237-2.3417.00528-.8797.35845-1.7216.98237-2.3418.62393-.6201 1.46791-.9682 2.34763-.9682.43599-.0013.86797.0832 1.27127.2489.40331.1656.77004.409 1.07928.7164.3092.3074.5548.6726.7229 1.0749s.2552.8338.2565 1.2698c-.0013.436-.0884.8674-.2565 1.2697s-.4137.7676-.7229 1.0749c-.30924.3074-.67597.5509-1.07928.7165-.4033.1656-.83528.2502-1.27127.2489zm0-5.12c-.23901-.0013-.47593.0444-.69725.1347-.22132.0902-.42269.2232-.59262.3913s-.3051.368-.39777.5883c-.09268.2203-.14105.4567-.14236.6957.00131.239.04968.4754.14236.6957.09267.2203.22784.4202.39777.5883s.3713.301.59262.3913c.22132.0902.45824.136.69725.1347.23901.0013.47593-.0445.69724-.1347.22132-.0903.4227-.2232.59263-.3913s.30509-.368.39777-.5883c.09267-.2203.14105-.4567.14235-.6957-.0013-.239-.04968-.4754-.14235-.6957-.09268-.2203-.22784-.4202-.39777-.5883s-.37131-.3011-.59263-.3913c-.22131-.0903-.45823-.136-.69724-.1347z"/><path d="m23.5924 22.6425c-.4381.0039-.8727-.0786-1.2789-.2429-.4062-.1644-.776-.4072-1.0881-.7147s-.5605-.6736-.7309-1.0773c-.1704-.4036-.2595-.837-.2621-1.2751.0053-.8797.3585-1.7216.9824-2.3418.6239-.6201 1.4679-.9682 2.3476-.9682.436-.0013.868.0832 1.2713.2489.4033.1656.77.409 1.0792.7164.3093.3074.5549.6726.723 1.0749.168.4023.2552.8338.2565 1.2698-.0026.8753-.3508 1.7142-.9688 2.3341s-1.4559.9706-2.3312.9759zm0-5.12c-.239-.0013-.4759.0444-.6972.1347-.2213.0902-.4227.2232-.5926.3913-.17.1681-.3051.368-.3978.5883s-.1411.4567-.1424.6957c.0013.239.0497.4754.1424.6957s.2278.4202.3978.5883c.1699.1681.3713.301.5926.3913.2213.0902.4582.136.6972.1347.239.0013.476-.0445.6973-.1347.2213-.0903.4227-.2232.5926-.3913s.3051-.368.3978-.5883c.0926-.2203.141-.4567.1423-.6957-.0013-.239-.0497-.4754-.1423-.6957-.0927-.2203-.2279-.4202-.3978-.5883s-.3713-.3011-.5926-.3913c-.2213-.0903-.4583-.136-.6973-.1347z"/></g></svg>