<svg fill="none" height="32" viewBox="0 0 32 32" width="32" xmlns="http://www.w3.org/2000/svg"><g fill="#fff"><path d="m16.74 26.3053c-.103.0003-.205-.0201-.3-.06-1.6107-.7095-3.0653-1.7302-4.2803-3.0036-1.2151-1.2733-2.16649-2.7742-2.79968-4.4164l1.38998-.57c1.0957 2.8491 3.2435 5.1687 6 6.48 7.28-3.52 7.36-11.84 7.2-14.33-.0001-.0423-.0125-.0837-.0355-.1192-.0231-.0354-.0559-.0635-.0945-.0808l-7-2.66-7.12998 2.66c-.03496.0233-.064.0544-.08483.0908-.02083.0365-.03288.0773-.03517.1192-.08296 1.4068-.01255 2.8184.20999 4.21 0 0 .13001.86.33999 1.67l-1.44999.38c-.15467-.5999-.27816-1.2074-.36999-1.82-.23696-1.5009-.31406-3.0228-.23-4.54.00871-.333.11336-.65636.30139-.93131.18804-.27496.45146-.4898.75861-.61869l6.99998-2.66c.3739-.1404.7861-.1404 1.16 0l7 2.66c.3083.12225.5749.33053.7681.60001.1933.26948.305.5888.3219.91999.17 2.76.07 12.1-8.39 15.92-.0771.0471-.1617.0809-.25.1z"/><path d="m7.93 23.5152c-.16659.001-.32877-.0535-.46095-.1549-.13219-.1014-.22684-.2439-.26905-.4051l-1.2-4.6-.31 1.05c-.04722.154-.14273.2886-.2724.3841-.12966.0954-.28659.1466-.4476.1459h-2.22c-.19891 0-.38967-.079-.53033-.2196-.14065-.1407-.21967-.3314-.21967-.5304.00259-.1981.08244-.3873.22253-.5274.1401-.1401.32936-.22.52747-.2226h1.66l.93-3.07c.04624-.1564.14289-.2932.27491-.3891.13202-.0958.29201-.1453.45509-.1409.16316.0034.32076.0599.44889.161s.2198.2412.26111.399l1.14 4.37.32001-1.25c.04372-.1603.13878-.3018.27063-.403.13184-.1011.29319-.1563.45936-.157h3.24c.1989 0 .3897.079.5303.2197.1407.1407.2197.3314.2197.5303-.0026.1981-.0824.3874-.2225.5275s-.3294.2199-.5275.2225h-2.66l-.9 3.49c-.04021.1604-.13296.3027-.26346.4042-.13049.1015-.29122.1563-.45654.1558z"/><path d="m29.2504 19.4649h-5.89c-.1989 0-.3897-.079-.5303-.2197-.1407-.1406-.2197-.3314-.2197-.5303-.0013-.0989.0172-.197.0544-.2886s.0924-.1748.1623-.2447.1531-.1251.2447-.1623c.0916-.0373.1898-.0557.2886-.0544h5.89c.1989 0 .3897.079.5304.2197.1406.1406.2196.3314.2196.5303-.0026.1981-.0824.3874-.2225.5275s-.3294.2199-.5275.2225z"/><path d="m19.6401 15.4444h-5.89c-.1989 0-.3897-.079-.5304-.2197-.1406-.1406-.2196-.3314-.2196-.5303-.0014-.0989.0171-.197.0543-.2886s.0924-.1748.1623-.2447c.07-.0699.1532-.1251.2448-.1623.0916-.0373.1897-.0557.2886-.0544h5.89c.1989 0 .3897.079.5303.2197.1407.1406.2197.3314.2197.5303-.0026.1981-.0825.3874-.2226.5275s-.3293.2199-.5274.2225z"/><path d="m17.4454 11.7496v5.89c0 .1989-.0791.3897-.2197.5303-.1407.1407-.3314.2197-.5303.2197-.0989.0013-.197-.0172-.2886-.0544s-.1748-.0924-.2447-.1623c-.07-.0699-.1252-.1531-.1624-.2447s-.0557-.1898-.0543-.2886v-5.89c0-.1989.079-.3897.2196-.5304.1407-.1406.3315-.2196.5304-.2196.1981.0026.3874.0824.5274.2225.1401.1401.22.3294.2226.5275z"/></g></svg>